<svg width="128" height="128" viewBox="0 0 128 128" fill="none" xmlns="http://www.w3.org/2000/svg">
<g id="Continuous Learning">
<g id="Group">
<path id="Vector" d="M6.00017 82.0223C6.00017 82.8828 6.00017 83.7448 6.00017 84.6052C5.98783 87.0573 6.63829 89.9695 7.70829 92.0809C8.78006 94.1908 9.63676 96.0424 11.1263 97.8294C12.6158 99.6164 13.8233 100.974 15.7395 102.483C17.6573 103.993 19.4765 104.926 21.8245 105.951C24.1725 106.974 26.6598 107.562 29.4326 107.862C32.2037 108.162 35.7521 108.379 38.7876 108.174C41.8231 107.969 45.2781 108.652 48.303 108.009C51.3262 107.365 50.5929 103.357 50.7163 101.179C50.8397 99.0014 51.8744 96.2797 53.0801 94.4652C54.2841 92.6492 55.7684 90.9752 57.4289 89.5691C59.0912 88.1647 62.2271 86.862 60.8081 84.4567C59.3891 82.0514 56.2267 83.7254 54.6931 85.288C53.1595 86.8507 51.2169 87.9371 49.9459 89.8193C48.675 91.7032 47.3124 93.3966 46.6002 95.634C45.8898 97.8714 45.0402 100.805 45.3099 103.331C41.0563 103.4 35.4719 103.61 31.384 103.331C27.2962 103.052 24.2043 101.859 20.9978 99.928C17.7913 97.9957 16.3088 96.065 14.2446 93.198C12.1804 90.3311 11.1721 86.397 11.2885 82.8295C11.4048 79.2619 12.3408 75.8025 14.5055 72.8613C16.6684 69.9184 18.5264 68.6722 21.851 66.6737C25.1773 64.6768 29.5331 64.9545 33.6633 64.5768C37.7917 64.1974 37.217 58.5926 38.4739 55.9064C39.7325 53.2219 41.222 50.0498 43.6793 47.7591C46.1384 45.4685 48.504 43.6427 51.7916 42.2738C55.0809 40.9049 59.6323 39.8378 63.4664 39.8895C67.3004 39.9412 71.6491 40.913 74.979 42.2609C78.3071 43.6104 80.4541 45.5379 82.989 47.8398C85.5256 50.1418 86.7825 53.2897 88.1839 55.9968C89.587 58.7024 88.5029 64.7592 92.7283 64.9109C96.9536 65.0627 101.165 65.1724 104.592 66.9611C108.02 68.7481 109.861 70.1154 112.251 72.8613C114.641 75.6072 115.861 78.5968 116.526 82.0223C117.192 85.4478 116.43 90.1922 114.927 93.1496C113.421 96.1054 111.599 98.4703 108.725 100.385C105.854 102.299 102.49 104.214 98.898 104.299C99.0954 104.442 96.9765 104.756 96.0775 104.622C95.1785 104.488 93.4563 104.684 92.3757 104.622C91.2951 104.561 89.8338 104.65 88.6739 104.622C87.514 104.595 86.1637 104.635 84.9721 104.622C83.7805 104.609 82.4637 104.629 81.2703 104.622C80.0769 104.616 78.9311 104.627 77.7448 104.622C76.5584 104.617 75.2117 104.627 74.043 104.622C72.8742 104.617 71.4482 104.63 70.3411 104.622C69.2341 104.614 67.6 104.64 66.6393 104.622C65.6786 104.605 63.655 104.853 63.5298 104.186C63.4047 103.52 64.8801 102.858 65.1851 102.59C67.5436 101.925 68.6048 98.4606 65.7967 97.6454C62.9904 96.8302 61.8658 99.384 60.1612 100.95C58.4566 102.516 56.8366 103.258 55.2342 105.155C53.6319 107.053 55.3559 109.436 56.7819 111.067C58.2098 112.697 59.2481 114.663 60.593 116.294C61.938 117.926 62.8547 120.859 65.7527 119.953C68.6524 119.048 67.1188 116.069 65.7139 114.51C64.3107 112.95 63.1138 111.002 62.0561 109.304C65.2326 109.309 68.5925 109.297 71.7514 109.304C74.9102 109.31 78.1625 109.292 81.2703 109.304C84.3781 109.315 87.7749 109.278 90.7892 109.304C93.8036 109.33 97.2304 109.363 99.9539 108.979C102.677 108.595 104.877 107.861 107.179 106.879C109.48 105.896 111.191 104.861 113.044 103.371C114.897 101.88 116.247 100.693 117.597 98.8238C118.948 96.9561 120.002 95.2336 120.758 93.0011C121.512 90.7669 121.911 87.887 121.99 85.4123C122.07 82.9376 121.664 79.9189 120.894 77.6993C120.123 75.4796 119.231 73.4715 117.812 71.6425C116.395 69.8119 115.249 68.4478 113.485 66.8884C111.72 65.329 110.056 64.3572 108.011 63.1852C105.965 62.0117 103.416 61.4305 101.133 60.7654C98.8504 60.102 94.6233 60.7751 94.3729 58.2391C94.1226 55.703 92.9627 53.803 92.0196 51.677C91.0748 49.5526 89.8514 47.856 88.3742 46.1368C86.897 44.416 85.6067 43.0616 83.7787 41.6281C81.9507 40.1946 80.1139 39.289 77.9598 38.2397C75.8075 37.1904 73.3749 36.5286 70.9088 35.9797C68.4426 35.4292 65.1269 34.9417 62.4475 35.0822C59.7681 35.2226 56.6004 35.7053 54.136 36.3494C51.6717 36.9935 49.5617 37.82 47.4393 38.9338C45.3151 40.0461 43.6723 41.0857 41.8284 42.5127C39.9845 43.9397 38.8617 45.4894 37.4215 47.1941C35.9813 48.8988 34.8849 50.7084 33.9894 52.7683C33.0921 54.8265 32.1367 57.4206 32.0891 59.7452C18.7608 58.9833 6.00017 69.8022 6.00017 82.0223Z" stroke="#3E6C59" stroke-width="0.3"/>
</g>
<g id="Group_2">
<path id="Vector_2" d="M106.125 28.1052C104.95 26.3036 103.312 24.8169 101.762 23.2219C100.213 21.627 98.4995 20.476 96.7385 19.1055C94.9775 17.735 93.1654 16.4549 91.1559 15.3394C89.1463 14.2239 87.2214 13.2085 84.9862 12.2722C82.7492 11.336 80.3871 10.524 77.9333 9.85243C75.4796 9.18089 72.8319 8.55455 70.1648 8.24945C67.4978 7.94435 63.7819 7.78938 61.0002 7.9282C58.2186 8.06542 55.1408 8.57069 52.5407 9.05982C49.9424 9.55056 47.5256 10.2415 45.1459 11.005C42.7662 11.7702 40.4887 12.6629 38.2993 13.6137C36.11 14.5629 34.3754 15.7413 32.4857 17.0069C30.5943 18.2709 29.0025 19.4994 27.2855 20.9619C25.5686 22.4245 24.1425 23.9468 22.6142 25.5627C21.0859 27.1802 20.0423 28.8752 18.648 30.6477C17.2554 32.4218 16.3775 34.4428 15.304 36.4639C14.2305 38.485 13.7969 40.7983 12.8626 42.9453C11.9266 45.0907 12.0693 47.9948 11.2497 50.1854C10.43 52.3759 11.4612 56.2131 14.5972 55.3495C17.7331 54.4874 16.0232 50.8343 16.9416 48.7793C17.86 46.7243 17.8988 43.7524 18.9071 41.7007C19.9172 39.6505 20.5236 37.4874 21.7293 35.568C22.935 33.647 24.1355 31.9133 25.5228 30.1634C26.9083 28.4119 28.2286 27.03 29.9297 25.4819C31.6325 23.9338 33.0304 22.6473 34.9624 21.3736C36.8961 20.1015 38.8634 19.0991 41.0386 18.0595C43.2139 17.0215 45.3134 16.224 47.7389 15.4782C50.1627 14.7308 52.7011 14.006 55.3576 13.5766C58.0141 13.1472 61.3351 12.9422 64.1714 12.9309C67.0077 12.9196 70.2212 13.1811 72.8055 13.7412C75.3879 14.303 77.8769 14.9681 80.2091 15.8398C82.5394 16.7131 84.616 17.4896 86.6908 18.6212C88.7673 19.7512 90.5671 20.9458 92.4198 22.2534C94.2742 23.5609 95.8166 24.8185 97.4436 26.3698C99.0724 27.9211 100.685 29.3352 101.718 31.1723C99.2311 30.2376 96.7509 31.1707 94.2566 30.0956C91.7622 29.0205 89.2186 31.9342 90.627 33.9037C92.0372 35.8731 95.39 34.9126 97.4489 35.5664C99.5078 36.2202 102.693 36.4962 104.712 36.8255C106.728 37.1565 110.143 38.4915 111.454 36.5366C112.766 34.5817 111.685 31.366 111.942 29.0737C112.2 26.7814 111.86 23.4189 111.942 21.1637C112.025 18.9086 112.64 15.7187 109.475 15.5137C106.309 15.3087 106.481 18.4646 106.439 20.6439C106.397 22.8232 106.332 25.9307 106.125 28.1052Z" fill="#3E6C59" stroke="black" stroke-width="0.5"/>
</g>
<g id="Group_3">
<path id="Vector_3" d="M6.00017 82.0223C6.00017 82.8828 6.00017 83.7448 6.00017 84.6052C5.98783 87.0573 6.63829 89.9695 7.70829 92.0809C8.78006 94.1908 9.63676 96.0424 11.1263 97.8294C12.6158 99.6164 13.8233 100.974 15.7395 102.483C17.6573 103.993 19.4765 104.926 21.8245 105.951C24.1725 106.974 26.6598 107.562 29.4326 107.862C32.2037 108.162 35.7521 108.379 38.7876 108.174C41.8231 107.969 45.2781 108.652 48.303 108.009C51.3262 107.365 50.5929 103.357 50.7163 101.179C50.8397 99.0014 51.8744 96.2797 53.0801 94.4652C54.2841 92.6492 55.7684 90.9752 57.4289 89.5691C59.0912 88.1647 62.2271 86.862 60.8081 84.4567C59.3891 82.0514 56.2267 83.7254 54.6931 85.288C53.1595 86.8507 51.2169 87.9371 49.9459 89.8193C48.675 91.7032 47.3124 93.3966 46.6002 95.634C45.8898 97.8714 45.0402 100.805 45.3099 103.331C41.0563 103.4 35.4719 103.61 31.384 103.331C27.2962 103.052 24.2043 101.859 20.9978 99.928C17.7913 97.9957 16.3088 96.065 14.2446 93.198C12.1804 90.3311 11.1721 86.397 11.2885 82.8295C11.4048 79.2619 12.3408 75.8025 14.5055 72.8613C16.6684 69.9184 18.5264 68.6722 21.851 66.6737C25.1773 64.6768 29.5331 64.9545 33.6633 64.5768C37.7917 64.1974 37.217 58.5926 38.4739 55.9064C39.7325 53.2219 41.222 50.0498 43.6793 47.7591C46.1384 45.4685 48.504 43.6427 51.7916 42.2738C55.0809 40.9049 59.6323 39.8378 63.4664 39.8895C67.3004 39.9412 71.6491 40.913 74.979 42.2609C78.3071 43.6104 80.4541 45.5379 82.989 47.8398C85.5256 50.1418 86.7825 53.2897 88.1839 55.9968C89.587 58.7024 88.5029 64.7592 92.7283 64.9109C96.9536 65.0627 101.165 65.1724 104.592 66.9611C108.02 68.7481 109.861 70.1154 112.251 72.8613C114.641 75.6072 115.861 78.5968 116.526 82.0223C117.192 85.4478 116.43 90.1922 114.927 93.1496C113.421 96.1054 111.599 98.4703 108.725 100.385C105.854 102.299 102.49 104.214 98.898 104.299C99.0954 104.442 96.9765 104.756 96.0775 104.622C95.1785 104.488 93.4563 104.684 92.3757 104.622C91.2951 104.561 89.8338 104.65 88.6739 104.622C87.514 104.595 86.1637 104.635 84.9721 104.622C83.7805 104.609 82.4637 104.629 81.2703 104.622C80.0769 104.616 78.9311 104.627 77.7448 104.622C76.5584 104.617 75.2117 104.627 74.043 104.622C72.8742 104.617 71.4482 104.63 70.3411 104.622C69.2341 104.614 67.6 104.64 66.6393 104.622C65.6786 104.605 63.655 104.853 63.5298 104.186C63.4047 103.52 64.8801 102.858 65.1851 102.59C67.5436 101.925 68.6048 98.4606 65.7967 97.6454C62.9904 96.8302 61.8658 99.384 60.1612 100.95C58.4566 102.516 56.8366 103.258 55.2342 105.155C53.6319 107.053 55.3559 109.436 56.7819 111.067C58.2098 112.697 59.2481 114.663 60.593 116.294C61.938 117.926 62.8547 120.859 65.7527 119.953C68.6524 119.048 67.1188 116.069 65.7139 114.51C64.3107 112.95 63.1138 111.002 62.0561 109.304C65.2326 109.309 68.5925 109.297 71.7514 109.304C74.9102 109.31 78.1625 109.292 81.2703 109.304C84.3781 109.315 87.7749 109.278 90.7892 109.304C93.8036 109.33 97.2304 109.363 99.9539 108.979C102.677 108.595 104.877 107.861 107.179 106.879C109.48 105.896 111.191 104.861 113.044 103.371C114.897 101.88 116.247 100.693 117.597 98.8238C118.948 96.9561 120.002 95.2336 120.758 93.0011C121.512 90.7669 121.911 87.887 121.99 85.4123C122.07 82.9376 121.664 79.9189 120.894 77.6993C120.123 75.4796 119.231 73.4715 117.812 71.6425C116.395 69.8119 115.249 68.4478 113.485 66.8884C111.72 65.329 110.056 64.3572 108.011 63.1852C105.965 62.0117 103.416 61.4305 101.133 60.7654C98.8504 60.102 94.6233 60.7751 94.3729 58.2391C94.1226 55.703 92.9627 53.803 92.0196 51.677C91.0748 49.5526 89.8514 47.856 88.3742 46.1368C86.897 44.416 85.6067 43.0616 83.7787 41.6281C81.9507 40.1946 80.1139 39.289 77.9598 38.2397C75.8075 37.1904 73.3749 36.5286 70.9088 35.9797C68.4426 35.4292 65.1269 34.9417 62.4475 35.0822C59.7681 35.2226 56.6004 35.7053 54.136 36.3494C51.6717 36.9935 49.5617 37.82 47.4393 38.9338C45.3151 40.0461 43.6723 41.0857 41.8284 42.5127C39.9845 43.9397 38.8617 45.4894 37.4215 47.1941C35.9813 48.8988 34.8849 50.7084 33.9894 52.7683C33.0921 54.8265 32.1367 57.4206 32.0891 59.7452C18.7608 58.9833 6.00017 69.8022 6.00017 82.0223Z" fill="#3E6C59" stroke="black" stroke-width="0.5"/>
</g>
</g>
</svg>
